<svg xmlns="http://www.w3.org/2000/svg" xmlns:xlink="http://www.w3.org/1999/xlink" fill="none" version="1.1" width="170" height="170" viewBox="0 0 170 170"><defs><linearGradient x1="0.5" y1="0" x2="0.5" y2="1" id="master_svg0_271_50336"><stop offset="0%" stop-color="#27B643" stop-opacity="1"/><stop offset="46.42857015132904%" stop-color="#73F2FC" stop-opacity="1"/><stop offset="100%" stop-color="#437BFF" stop-opacity="1"/></linearGradient></defs><g><g><ellipse cx="85" cy="85" rx="85" ry="85" fill="#1A1A1A" fill-opacity="0"/></g><g><g><path d="M18,133.000004L48,133.000004L65.81818,84L68,78L38,78L18,133.000004ZM43.797438,127.00000399999999L26.5661993,127.00000399999999L42.202562,84L59.4338,84L43.797438,127.00000399999999Z" fill-rule="evenodd" fill="#1A1A1A" fill-opacity="1"/></g><g><path d="M83,133.00000799999998L113,133.00000799999998L150.473686,44L153,38L123,38L83,133.00000799999998ZM109.01615100000001,127.000008L92.0364809,127.000008L126.983852,44L143.963516,44L109.01615100000001,127.000008Z" fill-rule="evenodd" fill="#1A1A1A" fill-opacity="1"/></g><g transform="matrix(-1,0,0,1,222,0)"><path d="M111,133.00000799999998L141.42857,133.00000799999998L182,38L151.571426,38L111,133.00000799999998Z" fill="url(#master_svg0_271_50336)" fill-opacity="1"/></g></g></g></svg>